<svg width="200" height="200" viewBox="0 0 200 200" fill="none" xmlns="http://www.w3.org/2000/svg">
  <circle cx="100" cy="100" r="100" fill="#FBF7E1"/>
  <path d="M141.5 64C136.8 64 133 67.8 133 72.5V127.5C133 132.2 136.8 136 141.5 136C146.2 136 150 132.2 150 127.5V72.5C150 67.8 146.2 64 141.5 64ZM125 127.5H112.707C111.2 127.5 109.734 128.025 108.575 129L94.725 139.45C93.2781 140.55 91.5281 141.156 89.7156 141.2C87.9031 141.244 86.1233 140.724 84.625 139.688C83.1233 138.58 82.0147 136.993 81.4609 135.179C80.9071 133.366 80.9331 131.422 81.534 129.626L84.4 121.058C84.8438 119.672 84.7766 118.18 84.21 116.839C83.6433 115.498 82.6133 114.397 81.3 113.744L69.5 107.5C67.1188 106.248 65.3391 104.168 64.5137 101.669C63.6883 99.1703 63.8778 96.4344 65.0402 94.0822C66.2025 91.73 68.2562 89.9859 70.7344 89.1918C73.2125 88.3977 75.93 88.6094 78.2813 89.7922L118.65 111.308C119.989 112.006 121.489 112.355 123 112.32L125 112.25V72.5C125 69.1875 121.895 67.5625 119.375 69.325L87.5 91.25H50C45.3 91.25 41.5 95.05 41.5 99.75C41.5 104.45 45.3 108.25 50 108.25H59.025L70.025 114.208C70.475 114.442 70.8719 114.754 71.2063 115.098L69.2187 121.279C67.9918 124.922 68.1043 128.884 69.5375 132.45C70.9707 136.016 73.6324 138.957 77.0734 140.703C80.5143 142.449 84.4941 142.871 88.2375 141.896C91.9809 140.921 95.2582 138.61 97.475 135.395L108.687 126.94C109.025 126.667 109.434 126.5 109.858 126.5H125V127.5Z" fill="#E4D1BF"/>
</svg>
