<svg width="200" height="200" viewBox="0 0 200 200" fill="none" xmlns="http://www.w3.org/2000/svg">
  <circle cx="100" cy="100" r="100" fill="#FBF7E1"/>
  <path d="M141.667 66.6667H116.667V58.3333C116.667 54.9167 113.75 52 110.333 52H89.6667C86.25 52 83.3333 54.9167 83.3333 58.3333V66.6667H58.3333C54.9167 66.6667 52 69.5833 52 73V139.667C52 143.083 54.9167 146 58.3333 146H141.667C145.083 146 148 143.083 148 139.667V73C148 69.5833 145.083 66.6667 141.667 66.6667ZM91.6667 60.3333H108.333V66.6667H91.6667V60.3333ZM139.667 139.667H60.3333V73H139.667V139.667ZM100 81.3333C93.1667 81.3333 87.6667 86.8333 87.6667 93.6667C87.6667 100.5 93.1667 106 100 106C106.833 106 112.333 100.5 112.333 93.6667C112.333 86.8333 106.833 81.3333 100 81.3333ZM100 98.6667C97.1667 98.6667 95 96.5 95 93.6667C95 90.8333 97.1667 88.6667 100 88.6667C102.833 88.6667 105 90.8333 105 93.6667C105 96.5 102.833 98.6667 100 98.6667ZM122.5 125.167H77.5V120.417C77.5 115.667 87 113.333 100 113.333C113 113.333 122.5 115.667 122.5 120.417V125.167Z" fill="#332C9C"/>
</svg>
