<svg width="200" height="200" viewBox="0 0 200 200" fill="none" xmlns="http://www.w3.org/2000/svg">
  <circle cx="100" cy="100" r="100" fill="#FBF7E1"/>
  <path d="M100 52L50 77L75 90.5L100 102L150 77L100 52ZM75 100.5V127L100 139.5L125 127V100.5L100 113L75 100.5ZM138 84.25V120.5C138 121.375 137.75 122.125 137.25 122.75C136.75 123.375 136.125 123.75 135.375 123.875L138.25 136.75H129.75L132.625 123.875C131.875 123.75 131.25 123.375 130.75 122.75C130.25 122.125 130 121.375 130 120.5V88.5L138 84.25Z" fill="#E9AA57"/>
</svg>
