<svg width="200" height="200" viewBox="0 0 200 200" fill="none" xmlns="http://www.w3.org/2000/svg">
  <circle cx="100" cy="100" r="100" fill="#FBF7E1"/>
  <path d="M102.5 55C75.6 55 54 76.6 54 103.5C54 130.4 75.6 152 102.5 152C129.4 152 151 130.4 151 103.5C151 76.6 129.4 55 102.5 55ZM102.5 143C80.6 143 63 125.4 63 103.5C63 81.6 80.6 64 102.5 64C124.4 64 142 81.6 142 103.5C142 125.4 124.4 143 102.5 143ZM107 80.5H93.5V126.5H107V80.5ZM128.5 98H111.5V108.5H128.5V98ZM93.5 98H76.5V108.5H93.5V98Z" fill="#D99DA0"/>
</svg>
