<svg width="200" height="200" viewBox="0 0 200 200" fill="none" xmlns="http://www.w3.org/2000/svg">
  <circle cx="100" cy="100" r="100" fill="#FBF7E1"/>
  <path d="M139 78H125V70C125 67.3478 123.946 64.8043 122.071 62.9289C120.196 61.0536 117.652 60 115 60H85C82.3478 60 79.8043 61.0536 77.9289 62.9289C76.0536 64.8043 75 67.3478 75 70V78H61C58.3478 78 55.8043 79.0536 53.9289 80.9289C52.0536 82.8043 51 85.3478 51 88V130C51 132.652 52.0536 135.196 53.9289 137.071C55.8043 138.946 58.3478 140 61 140H139C141.652 140 144.196 138.946 146.071 137.071C147.946 135.196 149 132.652 149 130V88C149 85.3478 147.946 82.8043 146.071 80.9289C144.196 79.0536 141.652 78 139 78ZM85 70H115V78H85V70ZM139 130H61V109H79V119H89V109H111V119H121V109H139V130ZM139 99H121V89H111V99H89V89H79V99H61V88H139V99Z" fill="#EB6A3A"/>
</svg>
